<?xml version="1.0" encoding="utf-8"?>
<!-- Generator: Adobe Illustrator 24.1.1, SVG Export Plug-In . SVG Version: 6.00 Build 0)  -->
<svg version="1.1" id="Layer_1" width="50" height="50"  xmlns="http://www.w3.org/2000/svg" xmlns:xlink="http://www.w3.org/1999/xlink" x="0px" y="0px"
	 viewBox="0 0 512 512" style="enable-background:new 0 0 512 512;" xml:space="preserve">
<style type="text/css">
	.st0{fill:#0089D6;}
</style>
<g>
	<path class="st0" d="M236.9,433.1c65.8-11.6,120.1-21.2,120.7-21.4l1.1-0.2l-62.1-73.9c-34.2-40.6-62.1-74-62.1-74.2
		c0-0.4,64.1-177,64.5-177.6c0.1-0.2,43.8,75.1,105.8,182.6c58.1,100.6,105.9,183.6,106.4,184.4l0.8,1.4l-197.4,0l-197.4,0
		L236.9,433.1z M0,410.6c0-0.1,29.3-50.9,65-112.9l65-112.7l75.8-63.6c41.7-35,75.9-63.6,76-63.7c0.1-0.1-0.4,1.3-1.2,3.1
		c-0.8,1.7-37.8,81.2-82.3,176.5l-80.8,173.3l-58.8,0.1C26.4,410.7,0,410.7,0,410.6z"/>
</g>
</svg>
